Coordinates
version=1
nRows=13
nColumns=63
inDegrees=yes

Units are S.I. units (second, meters, Newtons, ...)
If the header above contains a line with 'inDegrees', this indicates whether rotational values are in degrees (yes) or radians (no).

endheader
time	pelvis_tilt	pelvis_list	pelvis_rotation	pelvis_tx	pelvis_ty	pelvis_tz	hip_flexion_r	hip_adduction_r	hip_rotation_r	knee_angle_r	knee_angle_r_beta	ankle_angle_r	subtalar_angle_r	mtp_angle_r	hip_flexion_l	hip_adduction_l	hip_rotation_l	knee_angle_l	knee_angle_l_beta	ankle_angle_l	subtalar_angle_l	mtp_angle_l	L5_S1_Flex_Ext	L5_S1_Lat_Bending	L5_S1_axial_rotation	L4_L5_Flex_Ext	L4_L5_Lat_Bending	L4_L5_axial_rotation	L3_L4_Flex_Ext	L3_L4_Lat_Bending	L3_L4_axial_rotation	L2_L3_Flex_Ext	L2_L3_Lat_Bending	L2_L3_axial_rotation	L1_L2_Flex_Ext	L1_L2_Lat_Bending	L1_L2_axial_rotation	L1_T12_Flex_Ext	L1_T12_Lat_Bending	L1_T12_axial_rotation	Abs_r3	Abs_r2	Abs_r1	Abs_t1	Abs_t2	neck_flexion	neck_bending	neck_rotation	arm_flex_r	arm_add_r	arm_rot_r	elbow_flex_r	pro_sup_r	wrist_flex_r	wrist_dev_r	arm_flex_l	arm_add_l	arm_rot_l	elbow_flex_l	pro_sup_l	wrist_flex_l	wrist_dev_l
3.468085	0.468221	-6.766622	99.816092	0.216346	1.115050	0.388918	-1.472493	-0.638989	-4.982262	5.118201	0.089329	18.654718	11.700197	0.000000	2.904248	-1.571971	3.266559	8.099940	0.141371	16.836169	4.420216	0.000000	-0.061694	-0.178256	-0.470409	-0.114571	-0.237081	-0.499810	-0.101357	-0.433413	-0.499810	-0.070510	-0.433413	-0.411608	-0.057289	-0.363500	-0.382208	-0.035252	-0.276119	-0.352807	-0.440672	-2.016472	-2.616275	0.000000	0.000000	12.099337	-0.699829	-7.664052	42.166317	-12.877311	-29.953871	150.026201	81.503770	-0.978710	10.489884	5.988453	-20.157116	45.557309	42.077474	73.178302	-3.777318	4.007084
3.489362	0.361432	-6.559535	99.844455	0.216695	1.115365	0.389382	-1.683337	-0.690743	-4.942209	5.174541	0.090313	18.462002	11.563021	0.000000	2.693418	-1.498971	3.592027	8.060075	0.140675	16.604474	3.973411	0.000000	-0.058821	-0.187750	-0.617483	-0.109236	-0.249708	-0.656076	-0.096637	-0.456496	-0.656076	-0.067226	-0.456496	-0.540298	-0.054621	-0.382860	-0.501705	-0.033610	-0.290825	-0.463112	-0.420152	-2.123869	-3.434255	0.000000	0.000000	11.029880	-1.068393	-7.667036	44.687794	-12.344619	-28.095744	149.862268	81.825261	-0.213003	9.787451	5.315677	-20.394374	44.418693	42.310070	73.309323	-3.774879	3.958510
3.510638	0.244210	-6.390108	99.890658	0.217062	1.115599	0.389854	-1.854793	-0.757793	-4.978626	5.214386	0.091008	18.329325	11.472352	0.000000	2.521583	-1.407677	3.986058	8.011875	0.139834	16.366481	3.466276	0.000000	-0.049915	-0.200577	-0.758794	-0.092697	-0.266768	-0.806218	-0.082005	-0.487684	-0.806218	-0.057047	-0.487684	-0.663945	-0.046351	-0.409017	-0.616520	-0.028521	-0.310694	-0.569095	-0.356535	-2.268971	-4.220183	0.000000	0.000000	10.031047	-1.451296	-7.834413	46.975367	-11.749282	-26.245854	149.580808	82.364169	0.592280	9.531445	4.610014	-20.618373	43.185317	42.589180	73.499571	-3.822247	3.973974
3.531915	0.136755	-6.261157	99.857384	0.217530	1.115764	0.390297	-1.959044	-0.826840	-5.036760	5.255903	0.091733	18.277986	11.500096	0.000000	2.368112	-1.313833	4.443693	7.922079	0.138266	16.121134	2.769254	0.000000	-0.036339	-0.214603	-0.858115	-0.067486	-0.285422	-0.911748	-0.059702	-0.521786	-0.911748	-0.041532	-0.521786	-0.750851	-0.033745	-0.437619	-0.697219	-0.020764	-0.332420	-0.643587	-0.259568	-2.427632	-4.772581	0.000000	0.000000	9.113827	-1.881439	-8.322563	48.961683	-11.199344	-24.563702	149.261784	83.100189	1.343447	9.658093	3.959796	-20.801429	41.997233	42.888626	73.772475	-3.899608	4.131202
3.553191	0.041449	-6.176926	99.766015	0.218081	1.115871	0.390720	-1.991355	-0.896512	-5.163304	5.296623	0.092444	18.319244	11.682946	0.000000	2.256473	-1.233419	4.739262	7.821707	0.136515	15.957198	2.246378	0.000000	-0.019682	-0.230312	-0.914592	-0.036552	-0.306315	-0.971754	-0.032336	-0.559981	-0.971754	-0.022495	-0.559981	-0.800268	-0.018277	-0.469652	-0.743106	-0.011247	-0.356753	-0.685944	-0.140590	-2.605336	-5.086685	0.000000	0.000000	8.282844	-2.350247	-9.172155	50.616309	-10.734911	-23.127411	148.953222	83.975883	1.999095	10.046463	3.411984	-20.966716	40.962654	43.209957	74.078869	-4.006423	4.419133
3.574468	-0.037312	-6.134584	99.606322	0.218709	1.115940	0.391145	-1.953109	-0.961164	-5.306292	5.333406	0.093086	18.444658	11.981122	0.000000	2.185201	-1.169174	4.883432	7.713155	0.134620	15.880632	1.870593	0.000000	-0.001222	-0.246184	-0.934596	-0.002269	-0.327425	-0.993008	-0.002007	-0.598572	-0.993008	-0.001396	-0.598572	-0.817771	-0.001135	-0.502019	-0.759359	-0.000698	-0.381339	-0.700947	-0.008727	-2.784884	-5.197942	0.000000	0.000000	7.523754	-2.830782	-10.283522	51.966098	-10.354193	-21.905426	148.637949	84.896150	2.638893	10.515287	2.939714	-21.111063	40.013579	43.552937	74.454981	-4.114597	4.805728
3.595745	-0.091209	-6.130867	99.407675	0.219362	1.115983	0.391589	-1.852185	-1.009966	-5.454495	5.362665	0.093596	18.634122	12.351018	0.000000	2.161012	-1.131459	4.860266	7.609549	0.132812	15.901122	1.718225	0.000000	0.017082	-0.260534	-0.928862	0.031722	-0.346510	-0.986916	0.028063	-0.633463	-0.986916	0.019523	-0.633463	-0.812754	0.015862	-0.531281	-0.754701	0.009760	-0.403567	-0.696647	0.122012	-2.947214	-5.166053	0.000000	0.000000	6.838990	-3.314914	-11.586297	53.053661	-10.063039	-20.874345	148.320343	85.759635	3.310678	10.927966	2.534898	-21.242337	39.147340	43.922326	74.881305	-4.245120	5.252481
3.617021	-0.124849	-6.157959	99.168431	0.220017	1.116010	0.392043	-1.699555	-1.048026	-5.582801	5.392073	0.094109	18.878204	12.780609	0.000000	2.169266	-1.108634	4.779278	7.505628	0.130998	15.961272	1.617452	0.000000	0.033163	-0.272780	-0.903434	0.061587	-0.362798	-0.959898	0.054483	-0.663238	-0.959898	0.037902	-0.663238	-0.790504	0.030795	-0.556253	-0.734040	0.018949	-0.422536	-0.677575	0.236879	-3.085743	-5.024626	0.000000	0.000000	6.239127	-3.805545	-12.997401	53.947778	-9.848741	-20.010682	148.001893	86.508905	4.090465	11.219579	2.178597	-21.360374	38.323779	44.320374	75.403999	-4.342717	5.724832
3.638298	-0.142828	-6.214093	98.918015	0.220655	1.116038	0.392519	-1.506183	-1.076606	-5.691215	5.421313	0.094620	19.149213	13.217819	0.000000	2.219977	-1.102226	4.582050	7.423067	0.129557	16.056203	1.686214	0.000000	0.046209	-0.283147	-0.870301	0.085815	-0.376585	-0.924695	0.075917	-0.688443	-0.924695	0.052813	-0.688443	-0.761513	0.042910	-0.577393	-0.707119	0.026404	-0.438594	-0.652726	0.330069	-3.203013	-4.840352	0.000000	0.000000	5.737445	-4.258247	-14.388727	54.709875	-9.690587	-19.274563	147.690606	87.068449	5.006985	11.449747	1.837907	-21.469450	37.475130	44.751664	76.031402	-4.373399	6.172193
3.659574	-0.147278	-6.289044	98.643715	0.221282	1.116082	0.393016	-1.280634	-1.098245	-5.774903	5.467472	0.095425	19.416785	13.664001	0.000000	2.297644	-1.102738	4.408684	7.361637	0.128485	16.118518	1.686562	0.000000	0.055307	-0.291767	-0.826398	0.102710	-0.388050	-0.878048	0.090863	-0.709403	-0.878048	0.063210	-0.709403	-0.723098	0.051358	-0.594972	-0.671448	0.031602	-0.451947	-0.619799	0.395051	-3.300530	-4.596178	0.000000	0.000000	5.313210	-4.663730	-15.744884	55.362206	-9.587329	-18.682083	147.376441	87.470570	6.050066	11.660277	1.522012	-21.560233	36.603655	45.212944	76.784717	-4.298897	6.628864
3.680851	-0.158339	-6.382369	98.372958	0.221880	1.116132	0.393525	-1.037946	-1.129607	-5.804639	5.528724	0.096494	19.647090	14.035055	0.000000	2.400431	-1.095430	4.207405	7.322839	0.127808	16.154577	1.746071	0.000000	0.059694	-0.299608	-0.783871	0.110857	-0.398479	-0.832863	0.098071	-0.728467	-0.832863	0.068224	-0.728467	-0.685887	0.055432	-0.610961	-0.636895	0.034109	-0.464093	-0.587904	0.426387	-3.389227	-4.359657	0.000000	0.000000	4.987367	-5.018093	-16.894583	55.961363	-9.522251	-18.129535	147.069942	87.742754	7.066046	11.960402	1.216406	-21.663053	35.739203	45.693722	77.547225	-4.177405	6.976323
3.702128	-0.169105	-6.493781	98.109248	0.222442	1.116181	0.394006	-0.782076	-1.165541	-5.818802	5.610400	0.097920	19.813879	14.368131	0.000000	2.526226	-1.086250	4.004275	7.307979	0.127548	16.152691	1.825449	0.000000	0.060602	-0.306588	-0.740020	0.112544	-0.407762	-0.786272	0.099563	-0.745438	-0.786272	0.069262	-0.745438	-0.647518	0.056275	-0.625194	-0.601267	0.034628	-0.474905	-0.555015	0.432876	-3.468185	-4.115772	0.000000	0.000000	4.758765	-5.289535	-17.857797	56.500711	-9.508240	-17.684347	146.759216	87.847301	8.067929	12.263731	0.927524	-21.754779	34.879315	46.188218	78.364752	-3.959375	7.289942
3.723404	-0.185048	-6.609718	97.862822	0.222947	1.116218	0.394428	-0.538319	-1.208471	-5.815249	5.700597	0.099494	19.915587	14.656044	0.000000	2.652173	-1.065575	3.876616	7.301377	0.127433	16.099830	1.823783	0.000000	0.057308	-0.311162	-0.706436	0.106426	-0.413845	-0.750589	0.094151	-0.756559	-0.750589	0.065497	-0.756559	-0.618132	0.053216	-0.634521	-0.573980	0.032746	-0.481989	-0.529827	0.409344	-3.519923	-3.928988	0.000000	0.000000	4.629119	-5.529443	-18.505928	57.049718	-9.488314	-17.241143	146.451446	87.987188	8.940169	12.551723	0.629261	-21.832033	33.996653	46.692293	79.160530	-3.643663	7.601383
